<svg width="399" height="120" viewBox="0 0 399 120" fill="none" xmlns="http://www.w3.org/2000/svg">
  <rect x="5" y="50" width="10" height="20" rx="5" ry="5" fill="white"/>
  <rect x="25" y="30" width="10" height="60" rx="5" ry="5" fill="white"/>
  <rect x="45" y="10" width="10" height="100" rx="5" ry="5" fill="white"/>
  <rect x="65" y="40" width="10" height="40" rx="5" ry="5" fill="white"/>
  <rect x="85" y="20" width="10" height="80" rx="5" ry="5" fill="white"/>
  <rect x="105" y="30" width="10" height="60" rx="5" ry="5" fill="white"/>
  <rect x="125" y="5" width="10" height="110" rx="5" ry="5" fill="white"/>
  <rect x="165" y="30" width="10" height="60" rx="5" ry="5" fill="white"/>
  <rect x="145" y="20" width="10" height="80" rx="5" ry="5" fill="white"/>
  <rect x="185" y="30" width="10" height="60" rx="5" ry="5" fill="white"/>
  <rect x="205" y="10" width="10" height="100" rx="5" ry="5" fill="white"/>
  <rect x="225" y="30" width="10" height="60" rx="5" ry="5" fill="white"/>
  <rect x="245" y="5" width="10" height="110" rx="5" ry="5" fill="white"/>
  <rect x="265" y="40" width="10" height="40" rx="5" ry="5" fill="white"/>
  <rect x="285" y="20" width="10" height="80" rx="5" ry="5" fill="white"/>
  <rect x="305" y="30" width="10" height="60" rx="5" ry="5" fill="white"/>
  <rect x="325" y="5" width="10" height="110" rx="5" ry="5" fill="white"/>
  <rect x="385" y="40" width="10" height="40" rx="5" ry="5" fill="white"/>
  <rect x="365" y="30" width="10" height="60" rx="5" ry="5" fill="white"/>
  <rect x="345" y="20" width="10" height="80" rx="5" ry="5" fill="white"/>
</svg>
